<svg width="666" height="413" viewBox="0 0 666 413" fill="none" xmlns="http://www.w3.org/2000/svg">
<rect width="666" height="413" fill="white"/>
<path d="M248.092 207.399H238.961L238.912 202.37H246.578C247.929 202.37 249.036 202.199 249.898 201.857C250.761 201.499 251.404 200.987 251.827 200.319C252.267 199.636 252.486 198.806 252.486 197.829C252.486 196.722 252.275 195.827 251.852 195.144C251.445 194.46 250.802 193.964 249.923 193.654C249.06 193.345 247.945 193.19 246.578 193.19H241.5V223H234.176V187.453H246.578C248.645 187.453 250.493 187.648 252.12 188.039C253.764 188.43 255.156 189.024 256.295 189.821C257.434 190.619 258.305 191.628 258.907 192.849C259.509 194.053 259.811 195.485 259.811 197.146C259.811 198.61 259.477 199.961 258.81 201.198C258.159 202.435 257.125 203.444 255.709 204.226C254.309 205.007 252.478 205.438 250.216 205.52L248.092 207.399ZM247.774 223H236.959L239.815 217.287H247.774C249.06 217.287 250.11 217.084 250.924 216.677C251.738 216.254 252.34 215.684 252.73 214.968C253.121 214.252 253.316 213.43 253.316 212.502C253.316 211.46 253.137 210.557 252.779 209.792C252.438 209.027 251.884 208.441 251.119 208.034C250.354 207.611 249.345 207.399 248.092 207.399H241.036L241.085 202.37H249.874L251.559 204.348C253.723 204.315 255.465 204.698 256.783 205.495C258.118 206.276 259.086 207.294 259.688 208.547C260.307 209.8 260.616 211.143 260.616 212.575C260.616 214.854 260.12 216.774 259.127 218.337C258.134 219.883 256.677 221.047 254.757 221.828C252.853 222.609 250.525 223 247.774 223ZM273.092 185.5V223H266.036V185.5H273.092ZM277.779 210.061V209.548C277.779 207.611 278.056 205.829 278.609 204.201C279.163 202.557 279.968 201.133 281.026 199.929C282.084 198.724 283.386 197.788 284.933 197.121C286.479 196.438 288.253 196.096 290.255 196.096C292.257 196.096 294.039 196.438 295.602 197.121C297.164 197.788 298.474 198.724 299.532 199.929C300.606 201.133 301.42 202.557 301.974 204.201C302.527 205.829 302.804 207.611 302.804 209.548V210.061C302.804 211.981 302.527 213.763 301.974 215.407C301.42 217.035 300.606 218.459 299.532 219.68C298.474 220.884 297.172 221.82 295.626 222.487C294.08 223.155 292.306 223.488 290.304 223.488C288.302 223.488 286.52 223.155 284.957 222.487C283.411 221.82 282.101 220.884 281.026 219.68C279.968 218.459 279.163 217.035 278.609 215.407C278.056 213.763 277.779 211.981 277.779 210.061ZM284.811 209.548V210.061C284.811 211.167 284.908 212.201 285.104 213.161C285.299 214.121 285.608 214.968 286.031 215.7C286.471 216.416 287.04 216.978 287.74 217.385C288.44 217.792 289.295 217.995 290.304 217.995C291.28 217.995 292.118 217.792 292.818 217.385C293.518 216.978 294.08 216.416 294.503 215.7C294.926 214.968 295.235 214.121 295.431 213.161C295.642 212.201 295.748 211.167 295.748 210.061V209.548C295.748 208.474 295.642 207.465 295.431 206.521C295.235 205.56 294.918 204.714 294.479 203.981C294.055 203.233 293.494 202.647 292.794 202.224C292.094 201.8 291.248 201.589 290.255 201.589C289.262 201.589 288.416 201.8 287.716 202.224C287.032 202.647 286.471 203.233 286.031 203.981C285.608 204.714 285.299 205.56 285.104 206.521C284.908 207.465 284.811 208.474 284.811 209.548ZM318.038 217.995C318.901 217.995 319.666 217.832 320.333 217.507C321 217.165 321.521 216.693 321.896 216.091C322.286 215.472 322.49 214.748 322.506 213.918H329.122C329.106 215.773 328.609 217.425 327.633 218.874C326.656 220.306 325.346 221.438 323.702 222.268C322.058 223.081 320.219 223.488 318.185 223.488C316.134 223.488 314.343 223.146 312.813 222.463C311.3 221.779 310.038 220.835 309.029 219.631C308.02 218.41 307.263 216.994 306.759 215.383C306.254 213.755 306.002 212.014 306.002 210.158V209.45C306.002 207.578 306.254 205.837 306.759 204.226C307.263 202.598 308.02 201.182 309.029 199.978C310.038 198.757 311.3 197.805 312.813 197.121C314.327 196.438 316.101 196.096 318.136 196.096C320.3 196.096 322.197 196.511 323.824 197.341C325.468 198.171 326.754 199.359 327.682 200.905C328.626 202.435 329.106 204.25 329.122 206.35H322.506C322.49 205.471 322.302 204.673 321.944 203.957C321.603 203.241 321.098 202.671 320.431 202.248C319.78 201.809 318.974 201.589 318.014 201.589C316.988 201.589 316.15 201.809 315.499 202.248C314.848 202.671 314.343 203.257 313.985 204.006C313.627 204.738 313.375 205.576 313.229 206.521C313.098 207.448 313.033 208.425 313.033 209.45V210.158C313.033 211.184 313.098 212.168 313.229 213.112C313.359 214.056 313.603 214.895 313.961 215.627C314.335 216.359 314.848 216.937 315.499 217.36C316.15 217.784 316.996 217.995 318.038 217.995ZM340.23 185.476V223H333.199V185.476H340.23ZM356.881 196.584L345.406 209.67L339.254 215.896L336.69 210.817L341.573 204.616L348.434 196.584H356.881ZM349.581 223L341.769 210.793L346.627 206.545L357.687 223H349.581ZM371.578 223.488C369.527 223.488 367.688 223.163 366.061 222.512C364.433 221.844 363.049 220.925 361.91 219.753C360.787 218.581 359.924 217.222 359.322 215.676C358.72 214.113 358.419 212.453 358.419 210.695V209.719C358.419 207.717 358.704 205.886 359.273 204.226C359.843 202.565 360.657 201.125 361.715 199.904C362.789 198.684 364.091 197.748 365.621 197.097C367.151 196.429 368.876 196.096 370.797 196.096C372.669 196.096 374.329 196.405 375.777 197.023C377.226 197.642 378.438 198.521 379.415 199.66C380.408 200.799 381.157 202.167 381.661 203.762C382.166 205.34 382.418 207.098 382.418 209.035V211.965H361.422V207.277H375.509V206.74C375.509 205.764 375.33 204.893 374.972 204.128C374.63 203.347 374.109 202.728 373.409 202.272C372.709 201.817 371.814 201.589 370.724 201.589C369.796 201.589 368.998 201.792 368.331 202.199C367.664 202.606 367.118 203.176 366.695 203.908C366.288 204.641 365.979 205.503 365.768 206.496C365.572 207.473 365.475 208.547 365.475 209.719V210.695C365.475 211.753 365.621 212.73 365.914 213.625C366.223 214.52 366.655 215.293 367.208 215.944C367.778 216.595 368.461 217.1 369.259 217.458C370.073 217.816 370.992 217.995 372.018 217.995C373.287 217.995 374.467 217.751 375.558 217.263C376.664 216.758 377.617 216.001 378.414 214.992L381.832 218.703C381.279 219.501 380.522 220.266 379.562 220.998C378.618 221.73 377.478 222.333 376.144 222.805C374.809 223.26 373.287 223.488 371.578 223.488ZM393.453 202.346V223H386.422V196.584H393.038L393.453 202.346ZM401.412 196.413L401.29 202.932C400.948 202.883 400.533 202.842 400.045 202.81C399.573 202.761 399.142 202.736 398.751 202.736C397.758 202.736 396.896 202.867 396.163 203.127C395.447 203.371 394.845 203.737 394.356 204.226C393.884 204.714 393.526 205.308 393.282 206.008C393.054 206.708 392.924 207.505 392.892 208.4L391.476 207.961C391.476 206.252 391.646 204.681 391.988 203.249C392.33 201.8 392.826 200.539 393.478 199.465C394.145 198.391 394.959 197.561 395.919 196.975C396.879 196.389 397.978 196.096 399.215 196.096C399.605 196.096 400.004 196.128 400.411 196.193C400.818 196.242 401.152 196.315 401.412 196.413Z" fill="black"/>
<path d="M231.262 258.213L227.395 270H224.279L229.562 255.781H231.545L231.262 258.213ZM234.475 270L230.598 258.213L230.285 255.781H232.287L237.6 270H234.475ZM234.299 264.707V267.002H226.789V264.707H234.299ZM241.184 261.689V270H238.371V259.434H241.008L241.184 261.689ZM240.773 264.346H240.012C240.012 263.564 240.113 262.861 240.314 262.236C240.516 261.605 240.799 261.068 241.164 260.625C241.529 260.176 241.962 259.834 242.463 259.6C242.971 259.359 243.537 259.238 244.162 259.238C244.657 259.238 245.109 259.31 245.52 259.453C245.93 259.596 246.281 259.824 246.574 260.137C246.874 260.449 247.102 260.863 247.258 261.377C247.421 261.891 247.502 262.52 247.502 263.262V270H244.67V263.252C244.67 262.783 244.605 262.419 244.475 262.158C244.344 261.898 244.152 261.715 243.898 261.611C243.651 261.501 243.345 261.445 242.98 261.445C242.603 261.445 242.274 261.52 241.994 261.67C241.721 261.82 241.493 262.028 241.311 262.295C241.135 262.555 241.001 262.861 240.91 263.213C240.819 263.564 240.773 263.942 240.773 264.346ZM259.484 270.195C258.664 270.195 257.928 270.065 257.277 269.805C256.626 269.538 256.073 269.17 255.617 268.701C255.168 268.232 254.823 267.689 254.582 267.07C254.341 266.445 254.221 265.781 254.221 265.078V264.688C254.221 263.887 254.335 263.154 254.562 262.49C254.79 261.826 255.116 261.25 255.539 260.762C255.969 260.273 256.49 259.899 257.102 259.639C257.714 259.372 258.404 259.238 259.172 259.238C259.921 259.238 260.585 259.362 261.164 259.609C261.743 259.857 262.229 260.208 262.619 260.664C263.016 261.12 263.316 261.667 263.518 262.305C263.719 262.936 263.82 263.639 263.82 264.414V265.586H255.422V263.711H261.057V263.496C261.057 263.105 260.985 262.757 260.842 262.451C260.705 262.139 260.497 261.891 260.217 261.709C259.937 261.527 259.579 261.436 259.143 261.436C258.771 261.436 258.452 261.517 258.186 261.68C257.919 261.842 257.701 262.07 257.531 262.363C257.368 262.656 257.245 263.001 257.16 263.398C257.082 263.789 257.043 264.219 257.043 264.688V265.078C257.043 265.501 257.102 265.892 257.219 266.25C257.342 266.608 257.515 266.917 257.736 267.178C257.964 267.438 258.238 267.64 258.557 267.783C258.882 267.926 259.25 267.998 259.66 267.998C260.168 267.998 260.64 267.9 261.076 267.705C261.519 267.503 261.9 267.201 262.219 266.797L263.586 268.281C263.365 268.6 263.062 268.906 262.678 269.199C262.3 269.492 261.844 269.733 261.311 269.922C260.777 270.104 260.168 270.195 259.484 270.195ZM268.176 261.689V270H265.363V259.434H268L268.176 261.689ZM267.766 264.346H267.004C267.004 263.564 267.105 262.861 267.307 262.236C267.508 261.605 267.792 261.068 268.156 260.625C268.521 260.176 268.954 259.834 269.455 259.6C269.963 259.359 270.529 259.238 271.154 259.238C271.649 259.238 272.102 259.31 272.512 259.453C272.922 259.596 273.273 259.824 273.566 260.137C273.866 260.449 274.094 260.863 274.25 261.377C274.413 261.891 274.494 262.52 274.494 263.262V270H271.662V263.252C271.662 262.783 271.597 262.419 271.467 262.158C271.337 261.898 271.145 261.715 270.891 261.611C270.643 261.501 270.337 261.445 269.973 261.445C269.595 261.445 269.266 261.52 268.986 261.67C268.713 261.82 268.485 262.028 268.303 262.295C268.127 262.555 267.993 262.861 267.902 263.213C267.811 263.564 267.766 263.942 267.766 264.346ZM281.809 259.434V261.426H275.656V259.434H281.809ZM277.18 256.826H279.992V266.816C279.992 267.122 280.031 267.357 280.109 267.52C280.194 267.682 280.318 267.796 280.48 267.861C280.643 267.92 280.848 267.949 281.096 267.949C281.271 267.949 281.428 267.943 281.564 267.93C281.708 267.91 281.828 267.891 281.926 267.871L281.936 269.941C281.695 270.02 281.434 270.081 281.154 270.127C280.874 270.173 280.565 270.195 280.227 270.195C279.608 270.195 279.068 270.094 278.605 269.893C278.15 269.684 277.798 269.352 277.551 268.896C277.303 268.441 277.18 267.842 277.18 267.1V256.826ZM286.223 261.738V270H283.41V259.434H286.057L286.223 261.738ZM289.406 259.365L289.357 261.973C289.221 261.953 289.055 261.937 288.859 261.924C288.671 261.904 288.498 261.895 288.342 261.895C287.945 261.895 287.6 261.947 287.307 262.051C287.02 262.148 286.779 262.295 286.584 262.49C286.395 262.686 286.252 262.923 286.154 263.203C286.063 263.483 286.011 263.802 285.998 264.16L285.432 263.984C285.432 263.301 285.5 262.673 285.637 262.1C285.773 261.52 285.972 261.016 286.232 260.586C286.499 260.156 286.825 259.824 287.209 259.59C287.593 259.355 288.033 259.238 288.527 259.238C288.684 259.238 288.843 259.251 289.006 259.277C289.169 259.297 289.302 259.326 289.406 259.365ZM294.045 268.809L296.848 259.434H299.865L295.617 271.592C295.526 271.859 295.402 272.145 295.246 272.451C295.096 272.757 294.891 273.047 294.631 273.32C294.377 273.6 294.055 273.828 293.664 274.004C293.28 274.18 292.808 274.268 292.248 274.268C291.981 274.268 291.763 274.251 291.594 274.219C291.424 274.186 291.223 274.141 290.988 274.082V272.021C291.06 272.021 291.135 272.021 291.213 272.021C291.291 272.028 291.366 272.031 291.438 272.031C291.809 272.031 292.111 271.989 292.346 271.904C292.58 271.82 292.769 271.689 292.912 271.514C293.055 271.344 293.169 271.123 293.254 270.85L294.045 268.809ZM292.873 259.434L295.168 267.09L295.568 270.068L293.654 270.273L289.855 259.434H292.873ZM311.145 259.434V261.426H304.992V259.434H311.145ZM306.516 256.826H309.328V266.816C309.328 267.122 309.367 267.357 309.445 267.52C309.53 267.682 309.654 267.796 309.816 267.861C309.979 267.92 310.184 267.949 310.432 267.949C310.607 267.949 310.764 267.943 310.9 267.93C311.044 267.91 311.164 267.891 311.262 267.871L311.271 269.941C311.031 270.02 310.77 270.081 310.49 270.127C310.21 270.173 309.901 270.195 309.562 270.195C308.944 270.195 308.404 270.094 307.941 269.893C307.486 269.684 307.134 269.352 306.887 268.896C306.639 268.441 306.516 267.842 306.516 267.1V256.826ZM312.043 264.824V264.619C312.043 263.844 312.154 263.132 312.375 262.48C312.596 261.823 312.919 261.253 313.342 260.771C313.765 260.29 314.286 259.915 314.904 259.648C315.523 259.375 316.232 259.238 317.033 259.238C317.834 259.238 318.547 259.375 319.172 259.648C319.797 259.915 320.321 260.29 320.744 260.771C321.174 261.253 321.499 261.823 321.721 262.48C321.942 263.132 322.053 263.844 322.053 264.619V264.824C322.053 265.592 321.942 266.305 321.721 266.963C321.499 267.614 321.174 268.184 320.744 268.672C320.321 269.154 319.8 269.528 319.182 269.795C318.563 270.062 317.854 270.195 317.053 270.195C316.252 270.195 315.539 270.062 314.914 269.795C314.296 269.528 313.771 269.154 313.342 268.672C312.919 268.184 312.596 267.614 312.375 266.963C312.154 266.305 312.043 265.592 312.043 264.824ZM314.855 264.619V264.824C314.855 265.267 314.895 265.68 314.973 266.064C315.051 266.449 315.174 266.787 315.344 267.08C315.52 267.367 315.747 267.591 316.027 267.754C316.307 267.917 316.649 267.998 317.053 267.998C317.443 267.998 317.779 267.917 318.059 267.754C318.339 267.591 318.563 267.367 318.732 267.08C318.902 266.787 319.025 266.449 319.104 266.064C319.188 265.68 319.23 265.267 319.23 264.824V264.619C319.23 264.189 319.188 263.786 319.104 263.408C319.025 263.024 318.898 262.686 318.723 262.393C318.553 262.093 318.329 261.859 318.049 261.689C317.769 261.52 317.43 261.436 317.033 261.436C316.636 261.436 316.298 261.52 316.018 261.689C315.744 261.859 315.52 262.093 315.344 262.393C315.174 262.686 315.051 263.024 314.973 263.408C314.895 263.786 314.855 264.189 314.855 264.619ZM334.504 263.76H330.852L330.832 261.748H333.898C334.439 261.748 334.882 261.68 335.227 261.543C335.572 261.4 335.829 261.195 335.998 260.928C336.174 260.654 336.262 260.322 336.262 259.932C336.262 259.489 336.177 259.131 336.008 258.857C335.845 258.584 335.588 258.385 335.236 258.262C334.891 258.138 334.445 258.076 333.898 258.076H331.867V270H328.938V255.781H333.898C334.725 255.781 335.464 255.859 336.115 256.016C336.773 256.172 337.329 256.41 337.785 256.729C338.241 257.048 338.589 257.451 338.83 257.939C339.071 258.421 339.191 258.994 339.191 259.658C339.191 260.244 339.058 260.785 338.791 261.279C338.531 261.774 338.117 262.178 337.551 262.49C336.991 262.803 336.258 262.975 335.354 263.008L334.504 263.76ZM334.377 270H330.051L331.193 267.715H334.377C334.891 267.715 335.311 267.633 335.637 267.471C335.962 267.301 336.203 267.074 336.359 266.787C336.516 266.501 336.594 266.172 336.594 265.801C336.594 265.384 336.522 265.023 336.379 264.717C336.242 264.411 336.021 264.176 335.715 264.014C335.409 263.844 335.005 263.76 334.504 263.76H331.682L331.701 261.748H335.217L335.891 262.539C336.757 262.526 337.453 262.679 337.98 262.998C338.514 263.311 338.902 263.717 339.143 264.219C339.39 264.72 339.514 265.257 339.514 265.83C339.514 266.742 339.315 267.51 338.918 268.135C338.521 268.753 337.938 269.219 337.17 269.531C336.408 269.844 335.477 270 334.377 270ZM344.504 255V270H341.682V255H344.504ZM346.379 264.824V264.619C346.379 263.844 346.49 263.132 346.711 262.48C346.932 261.823 347.255 261.253 347.678 260.771C348.101 260.29 348.622 259.915 349.24 259.648C349.859 259.375 350.568 259.238 351.369 259.238C352.17 259.238 352.883 259.375 353.508 259.648C354.133 259.915 354.657 260.29 355.08 260.771C355.51 261.253 355.835 261.823 356.057 262.48C356.278 263.132 356.389 263.844 356.389 264.619V264.824C356.389 265.592 356.278 266.305 356.057 266.963C355.835 267.614 355.51 268.184 355.08 268.672C354.657 269.154 354.136 269.528 353.518 269.795C352.899 270.062 352.189 270.195 351.389 270.195C350.588 270.195 349.875 270.062 349.25 269.795C348.632 269.528 348.107 269.154 347.678 268.672C347.255 268.184 346.932 267.614 346.711 266.963C346.49 266.305 346.379 265.592 346.379 264.824ZM349.191 264.619V264.824C349.191 265.267 349.23 265.68 349.309 266.064C349.387 266.449 349.51 266.787 349.68 267.08C349.855 267.367 350.083 267.591 350.363 267.754C350.643 267.917 350.985 267.998 351.389 267.998C351.779 267.998 352.115 267.917 352.395 267.754C352.674 267.591 352.899 267.367 353.068 267.08C353.238 266.787 353.361 266.449 353.439 266.064C353.524 265.68 353.566 265.267 353.566 264.824V264.619C353.566 264.189 353.524 263.786 353.439 263.408C353.361 263.024 353.234 262.686 353.059 262.393C352.889 262.093 352.665 261.859 352.385 261.689C352.105 261.52 351.766 261.436 351.369 261.436C350.972 261.436 350.633 261.52 350.354 261.689C350.08 261.859 349.855 262.093 349.68 262.393C349.51 262.686 349.387 263.024 349.309 263.408C349.23 263.786 349.191 264.189 349.191 264.619ZM362.482 267.998C362.827 267.998 363.133 267.933 363.4 267.803C363.667 267.666 363.876 267.477 364.025 267.236C364.182 266.989 364.263 266.699 364.27 266.367H366.916C366.91 267.109 366.711 267.77 366.32 268.35C365.93 268.923 365.406 269.375 364.748 269.707C364.09 270.033 363.355 270.195 362.541 270.195C361.721 270.195 361.005 270.059 360.393 269.785C359.787 269.512 359.283 269.134 358.879 268.652C358.475 268.164 358.173 267.598 357.971 266.953C357.769 266.302 357.668 265.605 357.668 264.863V264.58C357.668 263.831 357.769 263.135 357.971 262.49C358.173 261.839 358.475 261.273 358.879 260.791C359.283 260.303 359.787 259.922 360.393 259.648C360.998 259.375 361.708 259.238 362.521 259.238C363.387 259.238 364.146 259.404 364.797 259.736C365.454 260.068 365.969 260.544 366.34 261.162C366.717 261.774 366.91 262.5 366.916 263.34H364.27C364.263 262.988 364.188 262.669 364.045 262.383C363.908 262.096 363.706 261.868 363.439 261.699C363.179 261.523 362.857 261.436 362.473 261.436C362.062 261.436 361.727 261.523 361.467 261.699C361.206 261.868 361.005 262.103 360.861 262.402C360.718 262.695 360.617 263.031 360.559 263.408C360.507 263.779 360.48 264.17 360.48 264.58V264.863C360.48 265.273 360.507 265.667 360.559 266.045C360.611 266.423 360.708 266.758 360.852 267.051C361.001 267.344 361.206 267.575 361.467 267.744C361.727 267.913 362.066 267.998 362.482 267.998ZM371.359 254.99V270H368.547V254.99H371.359ZM378.02 259.434L373.43 264.668L370.969 267.158L369.943 265.127L371.896 262.646L374.641 259.434H378.02ZM375.1 270L371.975 265.117L373.918 263.418L378.342 270H375.1ZM383.4 267.998C383.745 267.998 384.051 267.933 384.318 267.803C384.585 267.666 384.794 267.477 384.943 267.236C385.1 266.989 385.181 266.699 385.188 266.367H387.834C387.827 267.109 387.629 267.77 387.238 268.35C386.848 268.923 386.324 269.375 385.666 269.707C385.008 270.033 384.273 270.195 383.459 270.195C382.639 270.195 381.923 270.059 381.311 269.785C380.705 269.512 380.201 269.134 379.797 268.652C379.393 268.164 379.09 267.598 378.889 266.953C378.687 266.302 378.586 265.605 378.586 264.863V264.58C378.586 263.831 378.687 263.135 378.889 262.49C379.09 261.839 379.393 261.273 379.797 260.791C380.201 260.303 380.705 259.922 381.311 259.648C381.916 259.375 382.626 259.238 383.439 259.238C384.305 259.238 385.064 259.404 385.715 259.736C386.372 260.068 386.887 260.544 387.258 261.162C387.635 261.774 387.827 262.5 387.834 263.34H385.188C385.181 262.988 385.106 262.669 384.963 262.383C384.826 262.096 384.624 261.868 384.357 261.699C384.097 261.523 383.775 261.436 383.391 261.436C382.98 261.436 382.645 261.523 382.385 261.699C382.124 261.868 381.923 262.103 381.779 262.402C381.636 262.695 381.535 263.031 381.477 263.408C381.424 263.779 381.398 264.17 381.398 264.58V264.863C381.398 265.273 381.424 265.667 381.477 266.045C381.529 266.423 381.626 266.758 381.77 267.051C381.919 267.344 382.124 267.575 382.385 267.744C382.645 267.913 382.984 267.998 383.4 267.998ZM392.209 255V270H389.396V255H392.209ZM391.809 264.346H391.037C391.044 263.61 391.141 262.933 391.33 262.314C391.519 261.689 391.789 261.149 392.141 260.693C392.492 260.231 392.912 259.873 393.4 259.619C393.895 259.365 394.442 259.238 395.041 259.238C395.562 259.238 396.034 259.313 396.457 259.463C396.887 259.606 397.255 259.84 397.561 260.166C397.873 260.485 398.114 260.905 398.283 261.426C398.452 261.947 398.537 262.578 398.537 263.32V270H395.705V263.301C395.705 262.832 395.637 262.464 395.5 262.197C395.37 261.924 395.178 261.732 394.924 261.621C394.676 261.504 394.37 261.445 394.006 261.445C393.602 261.445 393.257 261.52 392.971 261.67C392.691 261.82 392.466 262.028 392.297 262.295C392.128 262.555 392.004 262.861 391.926 263.213C391.848 263.564 391.809 263.942 391.809 264.346ZM406.379 267.617V262.91C406.379 262.572 406.324 262.282 406.213 262.041C406.102 261.794 405.93 261.602 405.695 261.465C405.467 261.328 405.171 261.26 404.807 261.26C404.494 261.26 404.224 261.315 403.996 261.426C403.768 261.53 403.592 261.683 403.469 261.885C403.345 262.08 403.283 262.311 403.283 262.578H400.471C400.471 262.129 400.575 261.702 400.783 261.299C400.992 260.895 401.294 260.54 401.691 260.234C402.089 259.922 402.561 259.678 403.107 259.502C403.661 259.326 404.279 259.238 404.963 259.238C405.783 259.238 406.512 259.375 407.15 259.648C407.788 259.922 408.29 260.332 408.654 260.879C409.025 261.426 409.211 262.109 409.211 262.93V267.451C409.211 268.031 409.247 268.506 409.318 268.877C409.39 269.242 409.494 269.561 409.631 269.834V270H406.789C406.652 269.714 406.548 269.355 406.477 268.926C406.411 268.49 406.379 268.053 406.379 267.617ZM406.75 263.564L406.77 265.156H405.197C404.826 265.156 404.504 265.199 404.23 265.283C403.957 265.368 403.732 265.488 403.557 265.645C403.381 265.794 403.251 265.97 403.166 266.172C403.088 266.374 403.049 266.595 403.049 266.836C403.049 267.077 403.104 267.295 403.215 267.49C403.326 267.679 403.485 267.829 403.693 267.939C403.902 268.044 404.146 268.096 404.426 268.096C404.849 268.096 405.217 268.011 405.529 267.842C405.842 267.673 406.083 267.464 406.252 267.217C406.428 266.969 406.519 266.735 406.525 266.514L407.268 267.705C407.163 267.972 407.02 268.249 406.838 268.535C406.662 268.822 406.438 269.092 406.164 269.346C405.891 269.593 405.562 269.798 405.178 269.961C404.794 270.117 404.338 270.195 403.811 270.195C403.14 270.195 402.531 270.062 401.984 269.795C401.444 269.521 401.014 269.147 400.695 268.672C400.383 268.19 400.227 267.643 400.227 267.031C400.227 266.478 400.331 265.986 400.539 265.557C400.747 265.127 401.053 264.766 401.457 264.473C401.867 264.173 402.378 263.949 402.99 263.799C403.602 263.643 404.312 263.564 405.119 263.564H406.75ZM414.348 259.434V270H411.525V259.434H414.348ZM411.35 256.68C411.35 256.27 411.493 255.931 411.779 255.664C412.066 255.397 412.45 255.264 412.932 255.264C413.407 255.264 413.788 255.397 414.074 255.664C414.367 255.931 414.514 256.27 414.514 256.68C414.514 257.09 414.367 257.428 414.074 257.695C413.788 257.962 413.407 258.096 412.932 258.096C412.45 258.096 412.066 257.962 411.779 257.695C411.493 257.428 411.35 257.09 411.35 256.68ZM419.426 261.689V270H416.613V259.434H419.25L419.426 261.689ZM419.016 264.346H418.254C418.254 263.564 418.355 262.861 418.557 262.236C418.758 261.605 419.042 261.068 419.406 260.625C419.771 260.176 420.204 259.834 420.705 259.6C421.213 259.359 421.779 259.238 422.404 259.238C422.899 259.238 423.352 259.31 423.762 259.453C424.172 259.596 424.523 259.824 424.816 260.137C425.116 260.449 425.344 260.863 425.5 261.377C425.663 261.891 425.744 262.52 425.744 263.262V270H422.912V263.252C422.912 262.783 422.847 262.419 422.717 262.158C422.587 261.898 422.395 261.715 422.141 261.611C421.893 261.501 421.587 261.445 421.223 261.445C420.845 261.445 420.516 261.52 420.236 261.67C419.963 261.82 419.735 262.028 419.553 262.295C419.377 262.555 419.243 262.861 419.152 263.213C419.061 263.564 419.016 263.942 419.016 264.346Z" fill="black"/>
<circle cx="176.5" cy="47.5" r="6.5" stroke="#E64186" stroke-width="2"/>
<circle cx="424.5" cy="37.5" r="6.5" stroke="#41B4E6" stroke-width="2"/>
<circle cx="49.5" cy="67.5" r="6.5" stroke="#AC3030" stroke-width="2"/>
<circle cx="291.5" cy="77.5" r="6.5" stroke="#E6CB41" stroke-width="2"/>
<circle cx="399.5" cy="125.5" r="6.5" stroke="#AC3030" stroke-width="2"/>
<circle cx="145.5" cy="229.5" r="6.5" stroke="#4151E6" stroke-width="2"/>
<circle cx="513" cy="212" r="9" stroke="#41D2E6" stroke-width="2"/>
<circle cx="596.5" cy="105.5" r="6.5" stroke="#84E637" stroke-width="2"/>
<line x1="489.805" y1="118.54" x2="515.805" y2="107.54" stroke="#C83737"/>
<line x1="113.529" y1="190.166" x2="107.529" y2="173.166" stroke="#75EE2A"/>
<circle cx="164" cy="138" r="5" fill="#B75B5B"/>
<circle cx="516" cy="341" r="5" fill="#8FFF93"/>
<circle cx="316" cy="336" r="5" fill="#B6FBFF"/>
<circle cx="184" cy="314" r="5" fill="#CFD86F"/>
<circle cx="284" cy="139" r="5" fill="#B75B5B"/>
<path d="M624.95 229C618.463 250.942 602.543 250.28 595.394 247.207" stroke="#50EB43" stroke-width="4"/>
<path d="M293.95 341C284.803 355.635 269.761 357.382 263.382 356.427" stroke="#EB4343" stroke-width="4"/>
<path d="M148.854 346.56C142.367 368.501 126.447 367.84 119.298 364.766" stroke="#FFB800" stroke-width="4"/>
<path d="M76.9495 138C70.4629 159.942 54.5432 159.28 47.3941 156.207" stroke="#43EBB8" stroke-width="4"/>
<path d="M378.95 58C372.463 79.9418 356.543 79.2801 349.394 76.2065" stroke="#5043EB" stroke-width="4"/>
</svg>
